<?xml version="1.0" encoding="UTF-8" standalone="no"?>
<svg
   xmlns:dc="http://purl.org/dc/elements/1.1/"
   xmlns:cc="http://creativecommons.org/ns#"
   xmlns:rdf="http://www.w3.org/1999/02/22-rdf-syntax-ns#"
   xmlns:svg="http://www.w3.org/2000/svg"
   xmlns="http://www.w3.org/2000/svg"
   xmlns:sodipodi="http://sodipodi.sourceforge.net/DTD/sodipodi-0.dtd"
   xmlns:inkscape="http://www.inkscape.org/namespaces/inkscape"
   id="Layer_1"
   data-name="Layer 1"
   viewBox="0 0 40.74 35.56"
   version="1.1"
   sodipodi:docname="pigmask.svg"
   inkscape:version="1.0.1 (3bc2e813f5, 2020-09-07)">
  <metadata
     id="metadata230">
    <rdf:RDF>
      <cc:Work
         rdf:about="">
        <dc:format>image/svg+xml</dc:format>
        <dc:type
           rdf:resource="http://purl.org/dc/dcmitype/StillImage" />
        <dc:title>pigmask</dc:title>
      </cc:Work>
    </rdf:RDF>
  </metadata>
  <defs
     id="defs228" />
  <sodipodi:namedview
     pagecolor="#ffffff"
     bordercolor="#666666"
     borderopacity="1"
     objecttolerance="10"
     gridtolerance="10"
     guidetolerance="10"
     inkscape:pageopacity="0"
     inkscape:pageshadow="2"
     inkscape:window-width="1280"
     inkscape:window-height="697"
     id="namedview226"
     showgrid="false"
     inkscape:object-paths="true"
     inkscape:snap-smooth-nodes="true"
     inkscape:snap-intersection-paths="true"
     inkscape:zoom="13.257838"
     inkscape:cx="19.872675"
     inkscape:cy="17.394145"
     inkscape:window-x="1029"
     inkscape:window-y="1930"
     inkscape:window-maximized="1"
     inkscape:current-layer="Layer_1" />
  <title
     id="title195">pigmask</title>
  <path
     d="M32,15c.06-4-1.89-7.5-4.06-10.78-.35-.54-1.22,0-.86.5,2.07,3.13,4,6.41,3.92,10.28a.5.5,0,0,0,1,0Z"
     transform="translate(-0.55 0.22)"
     id="path197"
     style="fill:#b7b7c8" />
  <path
     d="M14.09,24.09c4.36,3.41,10.52,3.55,14.59-.4.46-.45-.24-1.16-.71-.71a10,10,0,0,1-13.18.4c-.5-.39-1.21.31-.7.71Z"
     transform="translate(-0.55 0.22)"
     id="path199"
     style="fill:#b7b7c8" />
  <path
     d="M27.85,4.15a11.36,11.36,0,0,0-13.91-.34c-3.95,3-4.46,8.44-3.69,13,.11.63,1.07.36,1-.27-.65-3.85-.35-8.45,2.65-11.31a10.3,10.3,0,0,1,13.29-.35c.49.42,1.2-.29.7-.7Z"
     transform="translate(-0.55 0.22)"
     id="path201"
     style="fill:#b7b7c8" />
  <path
     d="M11.5,16c-4.46.36-3.69,8.35.4,8.91,2.1.29,3.3-1.33,3.32-3.27a5.73,5.73,0,0,0-3.47-5.57c-.58-.27-1.09.59-.5.86A4.66,4.66,0,0,1,14,19.79c.43,1.46.52,4.14-1.63,4.15-3.2,0-4.12-6.68-.85-6.94.64-.05.64-1.05,0-1Z"
     transform="translate(-0.55 0.22)"
     id="path203"
     style="fill:#b7b7c8" />
  <path
     d="M32.85,16.15c-1.33-1.69-3.69-1-4.69.63s-1.27,5.2.23,6.73c1.67,1.68,4,0,5-1.57,1.28-2,1.24-4.23-.58-5.79-.48-.42-1.19.28-.7.7a2.76,2.76,0,0,1,1,3.18c-.32,1.24-2.32,4.37-4.09,2.77-1-.87-.77-3.14-.54-4.28.32-1.56,2.16-3.47,3.59-1.67.4.51,1.1-.2.7-.7Z"
     transform="translate(-0.55 0.22)"
     id="path205"
     style="fill:#b7b7c8" />
  <path
     d="M27,24.63c.93-6-11.82-5.38-10.22.4a.5.5,0,0,0,1-.27c-1.18-4.26,9-4.6,8.3-.39-.1.63.86.9,1,.26Z"
     transform="translate(-0.55 0.22)"
     id="path207"
     style="fill:#b7b7c8" />
  <path
     d="m 16.93,26.12 c 0.06,0.86 0.15,1.72 0.28,2.57 l 0.48,-0.63 c -1.42,0 -3,-0.43 -3.58,1.23 -0.577844,1.702887 -0.296462,3.039904 1.51,5.25 0.5,0.4 1.36,-0.21 0.86,-0.61 C 15.368185,32.944618 14.814361,31.47399 15,30 c 0.23,-1.4 1.63,-1 2.71,-1 0.327882,-0.0036 0.567174,-0.311309 0.49,-0.63 -0.12,-0.78 -0.2,-1.53 -0.25,-2.31 -0.05,-0.78 -1.05,-0.64 -1,0 z"
     transform="translate(-0.55,0.22)"
     id="path209"
     sodipodi:nodetypes="cccccccccscc"
     style="fill:#b7b7c8" />
  <path
     d="m 15.62,34.54 c 2.372829,0.784946 4.893605,1.017527 7.37,0.68 1.61,-0.12 4.33,-0.15 5.67,-1.21 1.13,-0.91 1.23,-3.17 1,-4.47 -0.4,-2.09 -2.43,-1.88 -4.26,-1.52 l 0.63,0.48 c -0.09,-0.997975 -0.09,-2.002025 0,-3 0.08,-0.64 -0.92,-0.63 -1,0 -0.09,0.997975 -0.09,2.002025 0,3 0.0018,0.327854 0.313417,0.565249 0.63,0.48 1.56,-0.3 2.77,-0.23 3.08,1.42 0.126259,0.895789 -0.04221,1.808342 -0.48,2.6 -0.61,0.76 -2.21,0.84 -3.08,1 -2.95,0.47 -5.648397,0.677024 -8.7,-0.07 -0.59,-0.24 -1.38862,0.360317 -0.79862,0.630317 z"
     transform="translate(-0.55,0.22)"
     id="path211"
     sodipodi:nodetypes="cccccccccccccccc"
     style="fill:#b7b7c8" />
  <path
     d="M13,5.37c-.18-1.12-1.08-2.75.47-3.2.61-.17.9.07,1.35.43a3.74,3.74,0,0,0,1.54.74c.63.14.9-.82.27-1-.83-.18-1.24-.76-2-1.1a2.39,2.39,0,0,0-2.2.25c-1.54.93-.66,2.75-.43,4.11.1.64,1.07.37,1-.26Z"
     transform="translate(-0.55 0.22)"
     id="path213"
     style="fill:#b7b7c8" />
  <path
     d="m 24.63,2.59 c 0.735928,-0.1228332 1.403171,-0.506143 1.88,-1.08 0.4,-0.49 0.24,-0.77 1.09,-0.68 0.719682,0.10032575 1.370405,0.4814122 1.81,1.06 0.28,0.73 -0.61,1.68 -0.86,2.45 -0.31474,0.9033706 -0.31474,1.8866294 0,2.79 0.21,0.61 1.18,0.35 1,-0.26 -0.57,-1.63 0.27,-3.07 1.11,-4.43 0.08932,-0.1547005 0.08932,-0.3452995 0,-0.5 C 29.970624,0.75175654 28.7637,-0.04422062 27.4,-0.21 25.83,-0.37 25.061097,1.6629966 23.571097,1.9729966 22.931097,2.0929966 24.03,2.72 24.66,2.63 Z"
     transform="translate(-0.55,0.22)"
     id="path215"
     sodipodi:nodetypes="ccccccccccccc"
     style="fill:#b7b7c8" />
  <path
     d="M11.75,7.07a6.29,6.29,0,0,0-4.2-.45c-2.63.93-3.72,3.93-6.64,4.55a.5.5,0,0,0-.35.61c.48,2,2.57,3.23,4.5,3.52,2.09.32,3.88-.47,5.69-1.37.58-.28.07-1.15-.5-.86C7.7,14.33,2.5,15.58,1.53,11.52l-.35.61a8.34,8.34,0,0,0,4-2.39A7.34,7.34,0,0,1,8.08,7.62a4.9,4.9,0,0,1,3.17.31c.58.25,1.09-.61.5-.86Z"
     transform="translate(-0.55 0.22)"
     id="path217"
     style="fill:#b7b7c8" />
  <path
     d="M29.85,7.85c4.71-4.94,7,5.26,11.19,2.07l-.75-.43c.15,4.31-5.87,4.3-8.54,2.58-.54-.35-1,.51-.5.86,3.34,2.16,10.22,1.67,10-3.44,0-.34-.43-.68-.75-.43-2,1.52-4.24-2-5.82-3-2.09-1.3-4-.62-5.57,1.08-.45.46.26,1.17.7.7Z"
     transform="translate(-0.55 0.22)"
     id="path219"
     style="fill:#b7b7c8" />
  <path
     d="M18.75,9.07a3,3,0,0,0-4.14,1.41c-.87,1.7-1.09,4.31.61,5.59a3.24,3.24,0,0,0,4.68-1.23,5.1,5.1,0,0,0-1-5.69c-.42-.49-1.13.22-.7.7a4.43,4.43,0,0,1,1.17,3.73C19,15.07,17.39,16.22,16,15.31c-1.25-.78-1.15-2.46-.73-3.71.47-1.42,1.52-2.32,3-1.67.58.26,1.09-.61.5-.86Z"
     transform="translate(-0.55 0.22)"
     id="path221"
     style="fill:#b7b7c8" />
  <path
     d="M26.63,9c-1.42-.41-3.25-.36-3.85,1.24s-.73,4.14.89,5.25c3.28,2.25,6.09-4.89,3.08-6.44-.57-.3-1.07.57-.5.86,2.35,1.22-.94,7.25-2.6,4.05a4.32,4.32,0,0,1,.07-3.33c.48-1.06,1.66-1,2.65-.67a.5.5,0,0,0,.26-1Z"
     transform="translate(-0.55 0.22)"
     id="path223"
     style="fill:#b7b7c8" />
</svg>
