<?xml version="1.0" standalone="no"?>
<!DOCTYPE svg PUBLIC "-//W3C//DTD SVG 20010904//EN"
 "http://www.w3.org/TR/2001/REC-SVG-20010904/DTD/svg10.dtd">
<svg version="1.0" xmlns="http://www.w3.org/2000/svg"
 width="70.000000pt" height="70.000000pt" viewBox="0 0 70.000000 70.000000"
 preserveAspectRatio="xMidYMid meet">
<metadata>
Created by potrace 1.11, written by Peter Selinger 2001-2013
</metadata>
<g transform="translate(0.000000,70.000000) scale(0.100000,-0.100000)"
fill="#000000" stroke="none">
<path d="M162 638 c-9 -9 -12 -82 -12 -290 0 -310 -2 -301 68 -258 l32 20 0
92 c0 51 -7 120 -15 153 -17 71 -20 216 -4 232 6 6 9 21 7 34 -2 18 -10 25
-33 27 -17 2 -36 -3 -43 -10z"/>
<path d="M272 468 c-8 -8 -12 -52 -12 -135 0 -104 3 -125 16 -130 23 -9 34 15
34 75 l0 52 40 0 40 0 0 -60 c0 -46 4 -62 16 -67 24 -9 34 15 34 80 0 56 0 57
29 57 31 0 57 22 46 40 -3 5 -22 10 -41 10 -27 0 -34 4 -34 20 0 17 7 20 44
20 44 0 74 19 61 40 -9 14 -128 13 -143 -2 -7 -7 -12 -31 -12 -55 l0 -43 -39
0 -40 0 -3 52 c-3 53 -14 68 -36 46z"/>
</g>
</svg>
